<?xml version="1.0" encoding="UTF-8"?>
<!-- Generator: Adobe Illustrator 22.1.0, SVG Export Plug-In . SVG Version: 6.00 Build 0)  -->
<svg version="1.1" id="Layer_1" xmlns="http://www.w3.org/2000/svg" xmlns:xlink="http://www.w3.org/1999/xlink" x="0px" y="0px" viewBox="0 0 600 54.6" style="enable-background:new 0 0 600 54.6;" xml:space="preserve">
<style type="text/css">
	.st0{fill:#211551;}
</style>
<g>
	<path class="st0" d="M216.6,54.6h-13.5V24.1c0-4.2-0.7-7.3-2.2-9.2c-1.4-1.9-3.4-2.9-6-2.9c-2.7,0-5.2,1-7.5,3.1s-4,4.7-5,8v31.6   H169V24.1c0-4.2-0.7-7.3-2.2-9.2c-1.4-1.9-3.4-2.9-6-2.9c-2.6,0-5.1,1-7.5,3c-2.4,2-4.1,4.7-5.1,7.9v31.7h-13.5V0.1H147v10.6   c1.9-3.4,4.6-6,8-7.9c3.4-1.8,7.2-2.8,11.6-2.8c4.4,0,7.8,1.1,10.2,3.2c2.4,2.1,3.9,4.8,4.6,7.9c2.1-3.6,4.9-6.4,8.1-8.3   c3.3-1.9,7-2.9,11.2-2.9c3.2,0,5.9,0.6,7.9,1.8c2.1,1.2,3.7,2.8,4.8,4.7s1.9,4.1,2.4,6.6c0.4,2.5,0.7,5,0.7,7.5V54.6z"/>
	<path class="st0" d="M315.7,54.6h-13.5V24.1c0-4.2-0.7-7.3-2.2-9.2c-1.4-1.9-3.4-2.9-6-2.9c-2.7,0-5.2,1-7.5,3.1c-2.3,2-4,4.7-5,8   v31.6h-13.5V24.1c0-4.2-0.7-7.3-2.2-9.2c-1.4-1.9-3.4-2.9-6-2.9c-2.6,0-5.1,1-7.5,3c-2.4,2-4.1,4.7-5.1,7.9v31.7h-13.5V0.1h12.2   v10.6c1.9-3.4,4.6-6,8-7.9c3.4-1.8,7.2-2.8,11.6-2.8c4.4,0,7.8,1.1,10.2,3.2c2.4,2.1,3.9,4.8,4.6,7.9c2.1-3.6,4.9-6.4,8.1-8.3   c3.3-1.9,7-2.9,11.2-2.9c3.2,0,5.9,0.6,7.9,1.8c2.1,1.2,3.7,2.8,4.8,4.7s1.9,4.1,2.4,6.6c0.4,2.5,0.7,5,0.7,7.5V54.6z"/>
	<path class="st0" d="M447.5,54.6H434V24.1c0-4.2-0.7-7.3-2.2-9.2c-1.5-1.9-3.5-2.9-6.1-2.9c-1.3,0-2.7,0.3-4.1,0.8   c-1.4,0.5-2.7,1.3-4,2.3c-1.2,1-2.4,2.1-3.4,3.5c-1,1.3-1.7,2.8-2.2,4.4v31.7h-13.4V0.1h12.1v10.6c1.9-3.3,4.8-6,8.4-7.8   c3.7-1.9,7.8-2.8,12.5-2.8c3.3,0,6,0.6,8,1.8c2.1,1.2,3.7,2.8,4.8,4.7c1.1,1.9,1.9,4.1,2.4,6.6c0.4,2.5,0.7,5,0.7,7.5V54.6z"/>
	<path class="st0" d="M578.8,54.6c-4.4,0-8.7-0.7-12.9-2.1c-4.2-1.4-7.8-3.4-10.8-6l5-8.4c3.2,2.3,6.3,4,9.4,5.2   c3,1.2,6.1,1.8,9.1,1.8c2.7,0,4.8-0.5,6.3-1.5c1.5-1,2.3-2.4,2.3-4.3c0-1.9-0.9-3.2-2.7-4.1c-1.8-0.9-4.8-1.9-8.8-3   c-3.4-0.9-6.3-1.8-8.7-2.7c-2.4-0.9-4.4-1.9-5.8-3c-1.5-1.1-2.5-2.4-3.2-3.8c-0.7-1.4-1-3.2-1-5.2c0-2.7,0.5-5.1,1.6-7.2   c1-2.1,2.5-4,4.4-5.5c1.9-1.5,4.1-2.7,6.6-3.5c2.5-0.8,5.2-1.2,8.2-1.2c3.9,0,7.6,0.6,11.1,1.7c3.4,1.1,6.6,3,9.5,5.5l-5.4,8.1   c-2.7-2-5.3-3.5-7.8-4.4c-2.5-0.9-5-1.4-7.5-1.4c-2.3,0-4.2,0.5-5.7,1.4c-1.5,0.9-2.3,2.4-2.3,4.5c0,0.9,0.2,1.7,0.6,2.3   s1,1.1,1.8,1.6c0.8,0.5,1.9,0.9,3.2,1.4c1.3,0.4,2.9,0.9,4.9,1.4c3.6,0.9,6.7,1.9,9.3,2.8c2.6,0.9,4.7,2,6.3,3.2   c1.6,1.2,2.8,2.6,3.6,4.2c0.8,1.6,1.1,3.5,1.1,5.7c0,5.2-1.9,9.2-5.7,12.2C590.5,53.1,585.3,54.6,578.8,54.6z"/>
	<g>
		<path class="st0" d="M13.9,27.4c0-8.7,6-15.8,13.4-15.8c5.1,0,9.4,3.4,11.7,8.3l13-3.9C47.6,6.6,38.2,0.1,27.3,0.1    C12.2,0.1,0,12.3,0,27.4c0,1.4,0.2,2.8,0.4,4.1L13.9,27.4C13.9,27.4,13.9,27.4,13.9,27.4z"/>
		<path class="st0" d="M27.3,43.2c-4.3,0-8.1-2.4-10.6-6.2l-13,3.9c4.7,8.2,13.4,13.7,23.5,13.7c11.6,0,21.5-7.3,25.4-17.6H37.8    C35.3,40.7,31.6,43.2,27.3,43.2z"/>
	</g>
	<path class="st0" d="M93.8,0.1c-15.1,0-27.3,12.2-27.3,27.3c0,15.1,12.2,27.3,27.3,27.3c15.1,0,27.3-12.2,27.3-27.3   C121,12.3,108.8,0.1,93.8,0.1z M93.8,43.2c-7.4,0-13.4-7.1-13.4-15.8c0-8.7,6-15.8,13.4-15.8s13.4,7.1,13.4,15.8   C107.2,36.1,101.2,43.2,93.8,43.2z"/>
	<g>
		<path class="st0" d="M488.4,43.2c-7.4,0-13.4-7.1-13.4-15.8c0-8.7,6-15.8,13.4-15.8c5.1,0,9.4,3.4,11.7,8.3l13-3.9    c-4.3-9.3-13.7-15.8-24.7-15.8c-15.1,0-27.3,12.2-27.3,27.3c0,15.1,12.2,27.3,27.3,27.3c11.6,0,21.5-7.3,25.4-17.6h-14.9    C496.5,40.7,492.7,43.2,488.4,43.2z"/>
	</g>
	<g>
		<g>
			<path class="st0" d="M357.2,54.6c-4.2,0-8-0.7-11.4-2.2c-3.4-1.4-6.3-3.4-8.7-5.9c-2.4-2.5-4.3-5.4-5.6-8.6     c-1.3-3.3-2-6.7-2-10.3c0-3.7,0.6-7.3,1.9-10.6c1.3-3.3,3.1-6.2,5.5-8.7c2.4-2.5,5.3-4.5,8.8-6c3.4-1.5,7.3-2.2,11.6-2.2     c4.3,0,8.1,0.7,11.5,2.2c3.4,1.5,6.3,3.4,8.6,5.9c2.4,2.5,4.2,5.4,5.4,8.6c1.2,3.3,1.9,6.7,1.9,10.2c0,0.9,0,1.7-0.1,2.5     c0,0.8-0.1,1.5-0.3,2h-40.6c0.2,2.1,0.7,3.9,1.5,5.5c0.8,1.6,1.8,3,3.1,4.1c1.3,1.1,2.7,2,4.3,2.6c1.6,0.6,3.3,0.9,5,0.9     c2.7,0,5.2-0.7,7.6-2c2.4-1.3,4-3,4.9-5.2l11.5,3.2c-1.9,4-5,7.3-9.3,9.9C368.2,53.3,363.1,54.6,357.2,54.6z M370.9,22.9     c-0.3-3.9-1.8-7.1-4.4-9.5c-2.6-2.4-5.7-3.6-9.4-3.6c-1.8,0-3.5,0.3-5.1,1c-1.6,0.6-3,1.5-4.2,2.7c-1.2,1.1-2.2,2.5-3,4.1     c-0.8,1.6-1.2,3.4-1.4,5.3H370.9z"/>
		</g>
	</g>
	<g>
		<polygon class="st0" points="541.1,11.9 541.1,0.1 527.7,0.1 527.7,15.9   "/>
		<polygon class="st0" points="527.7,26.3 527.7,54.6 541.1,54.6 541.1,22.3   "/>
	</g>
</g>
</svg>